<svg width="232.158" height="73.368" viewBox="0 0 150 48" fill="none" xmlns="http://www.w3.org/2000/svg">
<g clip-path="url(#clip0_64_463)">
<g clip-path="url(#clip1_64_463)">
<path d="M76.4553 15.3599H66.663C66.5615 15.3605 66.463 15.3948 66.3832 15.4575C66.3033 15.5201 66.2466 15.6076 66.2219 15.7061L65.4141 18.921C65.3973 18.9885 65.396 19.059 65.4104 19.1271C65.4249 19.1952 65.4546 19.2591 65.4975 19.314C65.5403 19.3689 65.5951 19.4133 65.6576 19.4439C65.7202 19.4744 65.7888 19.4903 65.8585 19.4904H73.5338C76.6678 19.4904 77.8476 19.8819 77.2113 22.2674L77.0884 22.7301H71.3887C66.154 22.7301 63.4729 24.3672 62.3114 28.7122C61.3894 32.1633 62.9315 34.125 66.6716 34.125H75.8805C76.8226 34.1248 77.7384 33.8138 78.4858 33.2401C79.2332 32.6665 79.7704 31.8623 80.0142 30.9522L82.3091 22.3742C83.5461 17.7487 81.5833 15.3599 76.4553 15.3599ZM75.1838 29.6181C75.1549 29.712 75.0967 29.794 75.0177 29.8523C74.9387 29.9105 74.8431 29.9419 74.7449 29.9417H69.7085C67.8924 29.9417 67.0599 30.1369 67.4783 28.571C67.9248 26.8983 68.5913 26.4701 70.6921 26.4701H75.5084C75.5799 26.4702 75.6503 26.4869 75.7141 26.5189C75.7779 26.551 75.8334 26.5976 75.876 26.6549C75.9187 26.7122 75.9473 26.7787 75.9597 26.849C75.9721 26.9194 75.9679 26.9916 75.9474 27.0601L75.1838 29.6181Z" fill="#222222"/>
<path d="M117.742 34.125H127.478C127.595 34.1249 127.709 34.0859 127.801 34.014C127.893 33.9421 127.959 33.8415 127.987 33.7281L128.76 30.647C128.78 30.5695 128.782 30.4887 128.765 30.4105C128.749 30.3323 128.715 30.2589 128.665 30.1959C128.616 30.1329 128.554 30.0819 128.482 30.0468C128.41 30.0117 128.331 29.9935 128.251 29.9934H120.662C117.528 29.9934 116.348 29.602 116.985 27.2164L117.108 26.7538H122.805C128.041 26.7538 130.721 25.1167 131.881 20.7716C132.804 17.3205 131.262 15.3599 127.523 15.3599H120.639C119.031 15.3602 117.468 15.891 116.192 16.87C114.916 17.8491 113.999 19.2216 113.583 20.7748L111.889 27.1075C110.654 31.7352 112.614 34.125 117.742 34.125ZM119 19.9185C119.033 19.8102 119.099 19.7152 119.189 19.6476C119.28 19.58 119.39 19.5434 119.503 19.5432H124.489C126.305 19.5432 127.099 19.4904 126.72 20.9139C126.275 22.5877 125.606 23.0148 123.505 23.0148H118.779C118.697 23.0149 118.617 22.9958 118.544 22.9592C118.471 22.9225 118.407 22.8692 118.358 22.8036C118.309 22.738 118.277 22.6619 118.262 22.5813C118.248 22.5007 118.253 22.418 118.277 22.3397L119 19.9185Z" fill="#222222"/>
<path d="M97.1369 34.0819L100.886 19.9282C100.915 19.8176 100.98 19.7197 101.071 19.6499C101.161 19.58 101.273 19.5422 101.387 19.5422H104.316C106.132 19.5422 106.964 19.347 106.546 20.9129L103.127 33.4693C103.106 33.5463 103.103 33.6271 103.118 33.7054C103.133 33.7838 103.166 33.8575 103.215 33.921C103.263 33.9844 103.325 34.0358 103.397 34.0712C103.468 34.1066 103.547 34.125 103.627 34.125H107.707C107.821 34.1251 107.932 34.0875 108.022 34.0181C108.113 33.9486 108.178 33.8513 108.207 33.7411L111.712 20.7748C112.634 17.3238 111.093 15.3631 107.353 15.3631H90.9185C89.5575 15.3634 88.2344 15.8114 87.1532 16.6379C86.0719 17.4644 85.2926 18.6236 84.9352 19.9369L81.2512 33.4693C81.2304 33.5463 81.2275 33.627 81.2429 33.7052C81.2582 33.7835 81.2914 33.8572 81.3397 33.9205C81.3881 33.9839 81.4504 34.0354 81.5218 34.0708C81.5933 34.1063 81.6719 34.1248 81.7516 34.125H85.9706C86.0847 34.1251 86.1958 34.0876 86.2865 34.0182C86.3771 33.9487 86.4424 33.8513 86.472 33.7411L90.2132 19.829C90.2427 19.7188 90.3077 19.6215 90.3982 19.552C90.4887 19.4826 90.5995 19.445 90.7136 19.4451H95.1245C95.2041 19.4452 95.2826 19.4636 95.3539 19.4989C95.4253 19.5341 95.4876 19.5853 95.536 19.6485C95.5845 19.7116 95.6178 19.785 95.6334 19.8631C95.649 19.9411 95.6464 20.0217 95.626 20.0986L91.8514 34.1185" fill="#222222"/>
<path d="M151.102 6.06903C145.646 6.06148 140.084 10.0237 138.323 15.0364C138.293 15.1252 138.236 15.2025 138.159 15.2574C138.083 15.3122 137.992 15.3421 137.898 15.3426H135.105C135.005 15.3426 134.908 15.3756 134.829 15.4364C134.75 15.4973 134.693 15.5826 134.667 15.6791L133.799 18.9145C133.781 18.9818 133.779 19.0523 133.792 19.1207C133.806 19.189 133.835 19.2533 133.877 19.3086C133.92 19.3638 133.974 19.4086 134.037 19.4394C134.099 19.4701 134.168 19.4861 134.238 19.4861H136.408C136.477 19.4861 136.546 19.502 136.608 19.5327C136.671 19.5635 136.725 19.6081 136.768 19.6632C136.81 19.7184 136.839 19.7825 136.853 19.8507C136.867 19.9189 136.864 19.9893 136.847 20.0566L133.247 33.5599C133.229 33.6271 133.226 33.6976 133.24 33.7658C133.253 33.8341 133.283 33.8983 133.325 33.9535C133.367 34.0088 133.422 34.0536 133.484 34.0844C133.546 34.1153 133.615 34.1314 133.685 34.1315H138.029C138.129 34.1313 138.226 34.0981 138.305 34.0371C138.385 33.9761 138.442 33.8906 138.468 33.7939L142.163 19.8236C142.189 19.7269 142.246 19.6414 142.325 19.5803C142.404 19.5192 142.501 19.4861 142.601 19.4861H145.189C145.287 19.4855 145.381 19.4537 145.459 19.3955C145.536 19.3372 145.593 19.2556 145.621 19.1625L146.546 15.9218C146.565 15.8547 146.569 15.784 146.556 15.7153C146.544 15.6466 146.516 15.5817 146.474 15.5258C146.432 15.4698 146.378 15.4242 146.316 15.3927C146.253 15.3611 146.185 15.3443 146.115 15.3437H144.139C144.062 15.3439 143.985 15.3244 143.918 15.287C143.85 15.2496 143.793 15.1955 143.752 15.1298C143.711 15.0642 143.687 14.9892 143.683 14.9119C143.679 14.8345 143.695 14.7575 143.729 14.688C144.844 12.5311 147.346 10.9253 149.804 10.9307L150.49 10.9242C150.589 10.9229 150.684 10.8894 150.762 10.8289C150.84 10.7684 150.896 10.6841 150.921 10.5888L151.986 6.64384C152.004 6.57709 152.006 6.50716 151.993 6.43933C151.98 6.37151 151.951 6.30757 151.91 6.25238C151.868 6.1972 151.815 6.1522 151.753 6.1208C151.691 6.0894 151.624 6.07244 151.554 6.07118L151.102 6.06903Z" fill="#222222"/>
<path d="M58.8572 15.3826C58.7429 15.3829 58.632 15.4207 58.5413 15.4903C58.4507 15.5598 58.3855 15.6573 58.3557 15.7676L54.9251 28.5882C54.2058 31.2703 51.2821 33.4574 48.4177 33.4521H47.7804C47.6662 33.4521 47.5553 33.4897 47.4646 33.5591C47.374 33.6285 47.3087 33.7258 47.2789 33.836L46.2544 37.6591C46.2337 37.7358 46.2309 37.8162 46.2463 37.8942C46.2617 37.9721 46.2948 38.0454 46.3431 38.1085C46.3914 38.1716 46.4535 38.2227 46.5247 38.2579C46.5959 38.2931 46.6743 38.3115 46.7537 38.3116H47.1161C52.8448 38.3191 58.6889 33.9525 60.1319 28.5871L63.4999 16.0339C63.5206 15.9571 63.5233 15.8765 63.5079 15.7985C63.4924 15.7204 63.4592 15.647 63.4109 15.5838C63.3625 15.5206 63.3002 15.4694 63.2289 15.4341C63.1576 15.3989 63.0791 15.3805 62.9995 15.3804L58.8572 15.3826Z" fill="#222222"/>
<path fill-rule="evenodd" clip-rule="evenodd" d="M63.5927 14.2275H59.4277C59.3493 14.2278 59.2719 14.2097 59.2019 14.1745C59.1318 14.1394 59.071 14.0882 59.0244 14.0252C58.9778 13.9622 58.9466 13.8891 58.9335 13.8119C58.9204 13.7346 58.9256 13.6553 58.9488 13.5805L59.7037 11.0288C59.7348 10.9257 59.7982 10.8353 59.8847 10.771C59.9711 10.7067 60.0759 10.6719 60.1837 10.6719H64.3476C64.426 10.6716 64.5033 10.6897 64.5734 10.7249C64.6434 10.76 64.7042 10.8112 64.7508 10.8742C64.7975 10.9372 64.8286 11.0103 64.8417 11.0875C64.8549 11.1648 64.8496 11.2441 64.8264 11.3189L64.0715 13.8695C64.041 13.9728 63.9779 14.0636 63.8916 14.1281C63.8053 14.1926 63.7004 14.2275 63.5927 14.2275Z" fill="#222222"/>
<path d="M21.0757 47.7653H6.06901C3.23806 47.7653 1.45538 45.5253 2.15098 42.6966C2.86168 39.8052 5.8242 37.4358 8.70475 37.4358H21.8975C24.7672 37.4358 27.7071 35.1096 28.4642 32.2388L34.0236 11.1669C34.2393 10.3408 33.7443 9.67213 32.9214 9.67213C32.0986 9.67213 31.252 10.3408 31.0331 11.1636L25.9395 30.4809C25.3625 32.6658 23.1237 34.4377 20.9387 34.4377H9.18358L10.1434 30.8271H20.8945C21.5707 30.8271 22.3386 30.2199 22.5122 29.5437L27.3652 11.1464C28.1202 8.30573 31.0492 5.99568 33.8888 5.99568C36.7284 5.99568 38.4377 8.30573 37.6957 11.1464L32.1201 32.2841C30.8357 37.1533 25.8468 41.1015 20.9776 41.1015H7.78375C6.97706 41.1015 6.11646 41.7195 5.86626 42.5262C5.59988 43.3824 6.09812 44.0931 6.94471 44.0931H21.9945C27.5216 44.0931 33.1835 39.6122 34.6416 34.0851L40.8427 10.5392H44.5504L38.4388 34.1347C36.4566 41.6612 28.6022 47.7653 21.0757 47.7653Z" fill="#D7282F"/>
<path d="M113.823 46.2339L115.038 41.7044C115.285 40.8071 116.086 40.2312 117.076 40.2312H120.062C120.385 40.2312 120.481 40.4609 120.368 40.8103L120.291 41.04C120.255 41.1845 120.171 41.3122 120.052 41.4016C119.933 41.491 119.787 41.5366 119.638 41.5307H117.254C116.897 41.5307 116.7 41.6936 116.594 42.0861L116.339 43.0395C116.306 43.1603 116.353 43.2228 116.474 43.2228H118.766C119.096 43.2228 119.226 43.3997 119.137 43.7297L119.088 43.9141C119.06 44.0627 118.979 44.1961 118.86 44.2893C118.741 44.3826 118.592 44.4294 118.441 44.421H116.154C116.1 44.4177 116.046 44.4345 116.003 44.4683C115.959 44.5021 115.93 44.5505 115.92 44.6043L115.584 45.8629C115.476 46.2554 115.584 46.4183 115.945 46.4183H118.33C118.653 46.4183 118.786 46.5908 118.72 46.9101L118.675 47.1322C118.601 47.4816 118.378 47.7113 118.058 47.7124H115.076C114.075 47.7081 113.589 47.1311 113.823 46.2339ZM118.265 39.5766C118.001 39.6844 117.819 39.665 117.726 39.4601L117.688 39.3684C117.595 39.1603 117.7 38.9662 117.982 38.8033L119.736 37.7065C120.017 37.5437 120.222 37.5793 120.315 37.8284L120.457 38.1519C120.551 38.4086 120.426 38.6308 120.127 38.7516L118.265 39.5723V39.5766Z" fill="#D7282F"/>
<path d="M121.762 47.748C121.474 47.6887 121.402 47.4827 121.54 47.1516L121.612 46.9802C121.748 46.6728 121.936 46.5272 122.228 46.5197H122.377C122.797 46.5197 123.09 46.3374 123.197 45.9395L124.59 40.737C124.618 40.5884 124.699 40.4551 124.818 40.3618C124.937 40.2686 125.086 40.2218 125.237 40.2301H125.86C126.19 40.2301 126.32 40.407 126.231 40.737L124.829 45.974C124.506 47.17 123.694 47.8375 122.66 47.8375C122.359 47.832 122.058 47.802 121.762 47.748V47.748Z" fill="#D7282F"/>
<path d="M125.429 47.1344L129.006 40.9009C129.265 40.448 129.618 40.2269 130.099 40.2269H131.145C131.626 40.2269 131.859 40.4426 131.876 40.9009L132.119 47.1344C132.132 47.4903 131.912 47.7081 131.541 47.7081H130.901C130.598 47.7081 130.451 47.5679 130.452 47.2767L130.432 45.9017C130.435 45.8804 130.433 45.8586 130.427 45.8381C130.42 45.8176 130.409 45.7989 130.393 45.7836C130.378 45.7683 130.36 45.7567 130.339 45.7499C130.319 45.7431 130.297 45.7411 130.276 45.7443H128.017C127.966 45.744 127.916 45.7588 127.873 45.7868C127.83 45.8148 127.796 45.8547 127.776 45.9017L127.021 47.2767C126.963 47.408 126.867 47.519 126.745 47.5958C126.624 47.6726 126.483 47.7117 126.339 47.7081H125.701C125.331 47.7081 125.227 47.4903 125.429 47.1344ZM130.217 44.4641C130.246 44.4672 130.274 44.464 130.301 44.4549C130.328 44.4457 130.352 44.4308 130.373 44.4112C130.394 44.3916 130.41 44.3677 130.42 44.3413C130.43 44.3149 130.435 44.2865 130.433 44.2581L130.404 42.1789C130.404 42.0053 130.404 41.8176 130.42 41.6397C130.429 41.5253 130.389 41.4725 130.295 41.4725H130.284C130.236 41.4761 130.19 41.4939 130.151 41.5236C130.113 41.5533 130.084 41.5937 130.069 41.6397C129.982 41.8165 129.894 41.9977 129.802 42.1789L128.66 44.2581C128.593 44.3843 128.631 44.4641 128.763 44.4641H130.217ZM130.713 39.7017C130.448 39.8095 130.268 39.7901 130.174 39.5863L130.135 39.4946C130.043 39.2854 130.148 39.0924 130.43 38.9284L132.179 37.8316C132.46 37.6677 132.666 37.7044 132.759 37.9535L132.901 38.277C132.995 38.5348 132.869 38.7559 132.577 38.8767L130.713 39.7017Z" fill="#D7282F"/>
<path d="M133.053 46.8928C133.186 46.3913 133.716 45.974 134.216 45.974C134.717 45.974 135.024 46.3913 134.889 46.8928C134.754 47.3943 134.226 47.8106 133.725 47.8106C133.223 47.8106 132.918 47.3943 133.053 46.8928ZM133.865 44.8438L134.206 43.0977L134.853 40.6777C134.881 40.5291 134.962 40.3957 135.081 40.3025C135.2 40.2092 135.349 40.1624 135.5 40.1708H136.075C136.405 40.1708 136.534 40.3477 136.446 40.6777L135.798 43.0977L135.203 44.8438C135.165 44.9874 135.079 45.1139 134.96 45.2024C134.841 45.291 134.695 45.3364 134.546 45.3312H134.265C133.941 45.3323 133.803 45.1641 133.865 44.8448V44.8438Z" fill="#D7282F"/>
</g>
</g>
<defs>
<clipPath id="clip0_64_463">
<rect width="150" height="47.7578" fill="white"/>
</clipPath>
<clipPath id="clip1_64_463">
<rect width="150" height="41.8332" fill="white" transform="translate(2 6)"/>
</clipPath>
</defs>
</svg>
